<svg xmlns="http://www.w3.org/2000/svg" viewBox="0 0 1708.44 360"><g id="Layer_2" data-name="Layer 2"><g id="Logo"><path d="M56.05,108A33.85,33.85,0,1,0,89.89,74.15,33.85,33.85,0,0,0,56.05,108ZM267.69,0H212a2.35,2.35,0,0,0-2.35,2.35v355a2.64,2.64,0,0,0,2.64,2.64h55.4A92.31,92.31,0,0,0,360,267.69V92.31A92.31,92.31,0,0,0,267.69,0Zm13.18,234.4a36.4,36.4,0,1,1,36.4-36.4A36.4,36.4,0,0,1,280.87,234.4ZM171,0H92.31A92.31,92.31,0,0,0,0,92.31V267.69A92.31,92.31,0,0,0,92.31,360H171a2.64,2.64,0,0,0,2.64-2.64V2.64A2.64,2.64,0,0,0,171,0ZM144.61,331H92.31A63.28,63.28,0,0,1,29,267.69V92.31A63.28,63.28,0,0,1,92.31,29h52.3ZM737.77,41.26l50.17,67.56h19.94V7.79h-20.5V74.15L737.68,7.79h-20.4v101h20.49ZM530.94,235.32c-27.55-4.52-45.33-9.63-45.33-22.45,0-14.82,19.8-20.52,46.38-20.52,24.71,0,49.49,9.41,58.33,13.13l13.55-33c-9.6-3.8-40-14.68-73.82-14.68-41.18,0-84.95,20.09-84.95,57.31,0,30.19,21.29,45.61,75.93,55,38.53,6.63,59.74,10.28,59.14,26.85-.34,9.12-7.39,24.42-50.81,24.42-34.93,0-59.54-12.66-68.09-17.8l-18,32.57a186.89,186.89,0,0,0,83.39,20.19c60.64,0,92.7-21,92.7-60.77C619.32,272.55,611.54,248.55,530.94,235.32ZM472.3,41.26l50.17,67.56h19.95V7.79H521.91V74.15L472.22,7.79h-20.4v101H472.3ZM833.56,298.79l-40.38-138.3H759.35L719.19,298.28,682.53,160.49H641L695,351.11h45.8l35.55-125.59,35.31,125.59h46l54.23-190.62H870.37ZM641.08,7.79H618.6v101h22.48ZM959.21,351.11h42.42V160.49H959.21ZM1590.62,4.39a53.92,53.92,0,1,0,53.81,53.92A53.93,53.93,0,0,0,1590.62,4.39Zm0,85.37A31.45,31.45,0,1,1,1622,58.3,31.46,31.46,0,0,1,1590.62,89.76Zm6.89,145.85h-89V160.49h-39.42V351.11h39.42v-76h89v76H1637V160.49h-39.45ZM1701.2,325l-6.58,19.1L1688,325h-7.25v26.12h4.67V331.06l6.82,19.81.09.24h4.5l.08-.24,6.82-19.81v20.05h4.67V325ZM1419.53,7.79h-41.78v101h41.78c28.64,0,51.94-22.66,51.94-50.51S1448.17,7.79,1419.53,7.79Zm1,79.8h-22V29h22a29.29,29.29,0,0,1,0,58.57ZM1653.65,330h8v21.12h5.08V330h7.84v-5h-21ZM1342.13,196.65a61.12,61.12,0,0,1,52.33,29.59l31-27a101.73,101.73,0,1,0,0,113.46l-31-27a61.13,61.13,0,0,1-52.33,29.6c-33.34,0-60.47-26.63-60.47-59.35S1308.79,196.65,1342.13,196.65ZM1118,90.11h-58.06V66.42h53.69V48.14h-53.69V26.34H1118V7.79l-78.56,0v101l78.56,0Zm-69.82,110.83h60.92V351.11h41V200.94h59.54V160.49H1048.13ZM965.42,7.79H879.84V29.24h32.29v79.58h21.73V29.24h31.56Zm326.86,101V7.79h-20.5V74.15L1222.09,7.79h-20.41v101h20.48V41.26l50.18,67.56Z" style="fill:#fff"/></g></g></svg>